<?xml version="1.0" encoding="UTF-8"?>
<!DOCTYPE svg PUBLIC "-//W3C//DTD SVG 1.1//EN" "http://www.w3.org/Graphics/SVG/1.1/DTD/svg11.dtd">
<svg xmlns="http://www.w3.org/2000/svg" version="1.1" width="514px" height="181px" style="shape-rendering:geometricPrecision; text-rendering:geometricPrecision; image-rendering:optimizeQuality; fill-rule:evenodd; clip-rule:evenodd" xmlns:xlink="http://www.w3.org/1999/xlink">
<g><path style="opacity:1" fill="#fdfdfe" d="M -0.5,-0.5 C 170.833,-0.5 342.167,-0.5 513.5,-0.5C 513.5,59.8333 513.5,120.167 513.5,180.5C 342.167,180.5 170.833,180.5 -0.5,180.5C -0.5,120.167 -0.5,59.8333 -0.5,-0.5 Z"/></g>
<g><path style="opacity:1" fill="#363636" d="M 410.5,47.5 C 413.5,47.5 416.5,47.5 419.5,47.5C 419.5,51.1667 419.5,54.8333 419.5,58.5C 416.5,58.5 413.5,58.5 410.5,58.5C 410.5,54.8333 410.5,51.1667 410.5,47.5 Z"/></g>
<g><path style="opacity:1" fill="#858585" d="M 410.5,47.5 C 413.625,46.5206 416.958,46.1872 420.5,46.5C 420.5,50.8333 420.5,55.1667 420.5,59.5C 416.958,59.8128 413.625,59.4794 410.5,58.5C 413.5,58.5 416.5,58.5 419.5,58.5C 419.5,54.8333 419.5,51.1667 419.5,47.5C 416.5,47.5 413.5,47.5 410.5,47.5 Z"/></g>
<g><path style="opacity:1" fill="#a8a8a8" d="M 194.5,109.5 C 193.504,94.676 193.171,79.676 193.5,64.5C 189.629,64.185 185.962,64.5184 182.5,65.5C 181.957,65.44 181.624,65.1067 181.5,64.5C 185.783,63.5078 190.116,63.1744 194.5,63.5C 194.5,78.8333 194.5,94.1667 194.5,109.5 Z"/></g>
<g><path style="opacity:1" fill="#c1c1c1" d="M 368.5,64.5 C 361.443,64.24 354.443,64.5733 347.5,65.5C 347.611,64.8826 347.944,64.3826 348.5,64C 355.346,63.1794 362.013,63.346 368.5,64.5 Z"/></g>
<g><path style="opacity:1" fill="#b8b8b8" d="M 424.5,64.5 C 433.652,63.5064 442.985,63.1731 452.5,63.5C 452.818,68.0323 452.485,72.3656 451.5,76.5C 451.5,72.5 451.5,68.5 451.5,64.5C 442.833,64.5 434.167,64.5 425.5,64.5C 425.167,64.5 424.833,64.5 424.5,64.5 Z"/></g>
<g><path style="opacity:1" fill="#333333" d="M 194.5,109.5 C 198.167,109.5 201.833,109.5 205.5,109.5C 205.5,94.5 205.5,79.5 205.5,64.5C 209.167,64.5 212.833,64.5 216.5,64.5C 216.667,81.17 216.5,97.8367 216,114.5C 215.261,117.573 213.428,119.74 210.5,121C 203.167,121.667 195.833,121.667 188.5,121C 186.19,119.363 184.69,117.196 184,114.5C 183.819,98.0928 183.319,81.7595 182.5,65.5C 185.962,64.5184 189.629,64.185 193.5,64.5C 193.171,79.676 193.504,94.676 194.5,109.5 Z"/></g>
<g><path style="opacity:1" fill="#303030" d="M 277.5,70.5 C 277.5,87.1667 277.5,103.833 277.5,120.5C 274.5,120.5 271.5,120.5 268.5,120.5C 268.829,105.657 268.496,90.9905 267.5,76.5C 262.821,76.3342 258.155,76.5008 253.5,77C 254,77.5 254.5,78 255,78.5C 255.5,92.8295 255.667,107.163 255.5,121.5C 252.167,121.5 248.833,121.5 245.5,121.5C 245.5,106.5 245.5,91.5 245.5,76.5C 240.652,75.1863 235.652,75.1863 230.5,76.5C 230.624,77.1067 230.957,77.44 231.5,77.5C 232.117,77.6107 232.617,77.944 233,78.5C 233.5,92.8295 233.667,107.163 233.5,121.5C 230.167,121.5 226.833,121.5 223.5,121.5C 223.667,103.164 223.5,84.8303 223,66.5C 222.5,66 222,65.5 221.5,65C 228.833,64.3333 236.167,64.3333 243.5,65C 246.215,65.8776 248.549,67.3776 250.5,69.5C 251.842,67.6585 253.509,66.1585 255.5,65C 261.917,64.1304 268.251,64.4638 274.5,66C 276.141,67.129 277.141,68.629 277.5,70.5 Z"/></g>
<g><path style="opacity:1" fill="#323232" d="M 337.5,120.5 C 334.5,120.5 331.5,120.5 328.5,120.5C 328.829,105.657 328.496,90.9905 327.5,76.5C 322.821,76.3342 318.155,76.5008 313.5,77C 314,77.5 314.5,78 315,78.5C 315.5,92.8295 315.667,107.163 315.5,121.5C 312.167,121.5 308.833,121.5 305.5,121.5C 305.5,106.5 305.5,91.5 305.5,76.5C 300.652,75.1863 295.652,75.1863 290.5,76.5C 290.624,77.1067 290.957,77.44 291.5,77.5C 292.117,77.6107 292.617,77.944 293,78.5C 293.5,92.8295 293.667,107.163 293.5,121.5C 290.167,121.5 286.833,121.5 283.5,121.5C 283.667,103.164 283.5,84.8303 283,66.5C 282.5,66 282,65.5 281.5,65C 289.911,64.0946 298.245,64.4279 306.5,66C 308.049,67.214 309.215,68.714 310,70.5C 311.167,68 313,66.1667 315.5,65C 320.833,64.3333 326.167,64.3333 331.5,65C 333.848,65.3459 335.681,66.5125 337,68.5C 337.5,85.8301 337.667,103.163 337.5,120.5 Z"/></g>
<g><path style="opacity:1" fill="#343434" d="M 368.5,64.5 C 371.468,65.4675 373.468,67.4675 374.5,70.5C 374.5,87.1667 374.5,103.833 374.5,120.5C 365.833,120.5 357.167,120.5 348.5,120.5C 345.482,119.647 343.649,117.647 343,114.5C 342.333,105.5 342.333,96.5 343,87.5C 344.371,85.9586 345.871,84.6253 347.5,83.5C 353.441,82.5872 359.441,82.2539 365.5,82.5C 365.795,80.2646 365.461,78.2646 364.5,76.5C 357.687,75.5088 350.687,75.1755 343.5,75.5C 343.5,73.5 343.5,71.5 343.5,69.5C 344.5,67.8333 345.833,66.5 347.5,65.5C 354.443,64.5733 361.443,64.24 368.5,64.5 Z"/></g>
<g><path style="opacity:1" fill="#353535" d="M 425.5,64.5 C 434.167,64.5 442.833,64.5 451.5,64.5C 451.5,68.5 451.5,72.5 451.5,76.5C 446.694,87.5841 441.694,98.5841 436.5,109.5C 441.305,110.487 446.305,110.821 451.5,110.5C 451.5,113.833 451.5,117.167 451.5,120.5C 442.833,120.5 434.167,120.5 425.5,120.5C 425.5,116.5 425.5,112.5 425.5,108.5C 430.502,97.8288 435.502,87.1622 440.5,76.5C 435.695,75.5128 430.695,75.1795 425.5,75.5C 425.5,71.8333 425.5,68.1667 425.5,64.5 Z"/></g>
<g><path style="opacity:1" fill="#373737" d="M 379.5,64.5 C 386.508,64.3337 393.508,64.5004 400.5,65C 406.015,66.8583 408.348,70.6916 407.5,76.5C 401.132,76.1703 394.798,76.5037 388.5,77.5C 390.461,91.9916 391.127,106.658 390.5,121.5C 387.167,121.5 383.833,121.5 380.5,121.5C 380.808,102.454 380.475,83.4536 379.5,64.5 Z"/></g>
<g><path style="opacity:1" fill="#343434" d="M 409.5,66.5 C 412.625,65.5206 415.958,65.1872 419.5,65.5C 419.5,83.8333 419.5,102.167 419.5,120.5C 416.5,120.5 413.5,120.5 410.5,120.5C 410.83,102.326 410.497,84.3256 409.5,66.5 Z"/></g>
<g><path style="opacity:1" fill="#646464" d="M 420.5,120.5 C 420.167,120.5 419.833,120.5 419.5,120.5C 419.5,102.167 419.5,83.8333 419.5,65.5C 415.958,65.1872 412.625,65.5206 409.5,66.5C 408.957,66.44 408.624,66.1067 408.5,65.5C 412.445,64.5091 416.445,64.1758 420.5,64.5C 420.5,83.1667 420.5,101.833 420.5,120.5 Z"/></g>
<g><path style="opacity:1" fill="#383838" d="M 462.5,64.5 C 468.842,64.3338 475.175,64.5005 481.5,65C 484.196,65.6898 486.363,67.1898 488,69.5C 488.942,78.602 488.609,87.602 487,96.5C 485.786,98.0488 484.286,99.2155 482.5,100C 477.177,100.499 471.844,100.666 466.5,100.5C 466.5,103.5 466.5,106.5 466.5,109.5C 473.833,109.5 481.167,109.5 488.5,109.5C 489.242,114.852 487.242,118.686 482.5,121C 475.5,121.667 468.5,121.667 461.5,121C 460.069,120.535 458.903,119.701 458,118.5C 456.364,102.259 456.03,85.9253 457,69.5C 458.107,66.887 459.94,65.2203 462.5,64.5 Z"/></g>
<g><path style="opacity:1" fill="#a1a1a1" d="M 409.5,66.5 C 410.497,84.3256 410.83,102.326 410.5,120.5C 413.5,120.5 416.5,120.5 419.5,120.5C 419.833,120.5 420.167,120.5 420.5,120.5C 417.038,121.482 413.371,121.815 409.5,121.5C 409.5,103.167 409.5,84.8333 409.5,66.5 Z"/></g>
<g><path style="opacity:1" fill="#898989" d="M 245.5,76.5 C 240.637,76.1805 235.97,76.5139 231.5,77.5C 230.957,77.44 230.624,77.1067 230.5,76.5C 235.652,75.1863 240.652,75.1863 245.5,76.5 Z"/></g>
<g><path style="opacity:1" fill="#8b8b8b" d="M 305.5,76.5 C 300.637,76.1805 295.97,76.5139 291.5,77.5C 290.957,77.44 290.624,77.1067 290.5,76.5C 295.652,75.1863 300.652,75.1863 305.5,76.5 Z"/></g>
<g><path style="opacity:1" fill="#6b6b6b" d="M 343.5,69.5 C 343.5,71.5 343.5,73.5 343.5,75.5C 350.687,75.1755 357.687,75.5088 364.5,76.5C 357.167,76.5 349.833,76.5 342.5,76.5C 342.198,73.9407 342.532,71.6074 343.5,69.5 Z"/></g>
<g><path style="opacity:1" fill="#6d6d6d" d="M 424.5,64.5 C 424.833,64.5 425.167,64.5 425.5,64.5C 425.5,68.1667 425.5,71.8333 425.5,75.5C 430.695,75.1795 435.695,75.5128 440.5,76.5C 435.167,76.5 429.833,76.5 424.5,76.5C 424.5,72.5 424.5,68.5 424.5,64.5 Z"/></g>
<g><path style="opacity:1" fill="#6f6f6f" d="M 478.5,76.5 C 473.637,76.1805 468.97,76.5139 464.5,77.5C 463.957,77.44 463.624,77.1067 463.5,76.5C 468.652,75.1863 473.652,75.1863 478.5,76.5 Z"/></g>
<g><path style="opacity:1" fill="#6c6c6c" d="M 277.5,70.5 C 278.497,87.3251 278.83,104.325 278.5,121.5C 274.833,121.5 271.167,121.5 267.5,121.5C 267.5,106.5 267.5,91.5 267.5,76.5C 268.496,90.9905 268.829,105.657 268.5,120.5C 271.5,120.5 274.5,120.5 277.5,120.5C 277.5,103.833 277.5,87.1667 277.5,70.5 Z"/></g>
<g><path style="opacity:1" fill="#f6f6f6" d="M 478.5,76.5 C 478.5,80.5 478.5,84.5 478.5,88.5C 474.5,88.5 470.5,88.5 466.5,88.5C 466.964,84.4975 466.298,80.8309 464.5,77.5C 468.97,76.5139 473.637,76.1805 478.5,76.5 Z"/></g>
<g><path style="opacity:1" fill="#797979" d="M 178.5,71.5 C 179.482,74.9619 179.815,78.6286 179.5,82.5C 175.629,82.815 171.962,82.4816 168.5,81.5C 171.833,81.5 175.167,81.5 178.5,81.5C 178.5,78.1667 178.5,74.8333 178.5,71.5 Z"/></g>
<g><path style="opacity:1" fill="#b2b2b2" d="M 364.5,76.5 C 365.461,78.2646 365.795,80.2646 365.5,82.5C 359.441,82.2539 353.441,82.5872 347.5,83.5C 347.611,82.8826 347.944,82.3826 348.5,82C 353.823,81.5006 359.156,81.334 364.5,81.5C 364.5,79.8333 364.5,78.1667 364.5,76.5 Z"/></g>
<g><path style="opacity:1" fill="#919191" d="M 364.5,94.5 C 359.968,94.1818 355.634,94.5151 351.5,95.5C 350.957,95.44 350.624,95.1067 350.5,94.5C 355.318,93.1876 359.985,93.1876 364.5,94.5 Z"/></g>
<g><path style="opacity:1" fill="#fefefe" d="M 364.5,94.5 C 364.5,99.1667 364.5,103.833 364.5,108.5C 360.833,108.5 357.167,108.5 353.5,108.5C 353.817,104.298 353.483,100.298 352.5,96.5C 351.833,96.5 351.5,96.1667 351.5,95.5C 355.634,94.5151 359.968,94.1818 364.5,94.5 Z"/></g>
<g><path style="opacity:1" fill="#8088d4" d="M 94.5,100.5 C 93.5058,110.653 93.1724,120.986 93.5,131.5C 95.099,131.768 96.4324,131.434 97.5,130.5C 97.5,124.167 97.5,117.833 97.5,111.5C 96.5,111.5 95.5,111.5 94.5,111.5C 94.5569,110.391 94.8902,109.391 95.5,108.5C 95.7828,107.711 96.2828,107.044 97,106.5C 97.3333,101.833 97.6667,97.1667 98,92.5C 99.353,91.3147 100.52,89.9814 101.5,88.5C 106.2,87.3985 110.367,85.3985 114,82.5C 114.167,82 114.333,81.5 114.5,81C 109.273,77.7859 108.273,73.6193 111.5,68.5C 116.703,66.1949 120.036,67.6949 121.5,73C 118.841,76.3589 117.007,80.1922 116,84.5C 115.167,85.3333 114.333,86.1667 113.5,87C 108.994,88.172 104.827,90.0054 101,92.5C 99.7793,98.8357 100.613,104.836 103.5,110.5C 102.675,111.386 101.675,111.719 100.5,111.5C 100.814,119.087 100.481,126.587 99.5,134C 88.1716,134.5 76.8382,134.667 65.5,134.5C 64.8264,128.958 63.1597,123.791 60.5,119C 43.221,122.55 35.8877,115.717 38.5,98.5C 34.8183,98.6653 31.1516,98.4986 27.5,98C 26.9186,97.1074 26.5852,96.1074 26.5,95C 28.2694,89.0258 30.4361,83.1924 33,77.5C 33.5911,47.5723 48.7578,33.739 78.5,36C 89.7365,38.9015 97.5699,45.7348 102,56.5C 109.513,59.2109 110.346,63.2109 104.5,68.5C 103.673,72.4592 103.173,76.4592 103,80.5C 102.535,81.9308 101.701,83.0975 100.5,84C 94.0281,84.4748 91.6948,87.9748 93.5,94.5C 94.5,94.5 95.5,94.5 96.5,94.5C 96.3964,96.7028 95.7298,98.7028 94.5,100.5 Z"/></g>
<g><path style="opacity:1" fill="#bbbfe7" d="M 29.5,94.5 C 33.1667,95.1667 36.8333,95.8333 40.5,96.5C 36.4454,96.8242 32.4454,96.4909 28.5,95.5C 28.6236,94.8933 28.9569,94.56 29.5,94.5 Z"/></g>
<g><path style="opacity:1" fill="#f0f1fa" d="M 113.5,69.5 C 118.014,69.6932 119.347,71.8599 117.5,76C 111.681,76.5262 110.348,74.3595 113.5,69.5 Z"/></g>
<g><path style="opacity:1" fill="#f0f1fa" d="M 100.5,59.5 C 105.328,59.3852 106.661,61.5519 104.5,66C 98.7377,66.4178 97.4044,64.2511 100.5,59.5 Z"/></g>
<g><path style="opacity:1" fill="#fafafd" d="M 84.5,58.5 C 84.8293,73.3428 84.496,88.0095 83.5,102.5C 81.8182,97.072 80.9848,91.4053 81,85.5C 78.2616,83.3536 75.2616,81.687 72,80.5C 70.5742,74.3209 71.9076,68.9876 76,64.5C 76.3653,60.1837 74.3653,57.517 70,56.5C 64.9768,57.5422 63.3101,60.5422 65,65.5C 67.8768,69.5831 69.2102,74.2498 69,79.5C 70.6813,83.4992 73.6813,85.4992 78,85.5C 78.9654,91.6573 78.4654,97.6573 76.5,103.5C 78.387,112.7 79.0536,122.034 78.5,131.5C 77.1667,131.5 75.8333,131.5 74.5,131.5C 74.5,129.167 74.5,126.833 74.5,124.5C 75.5,124.5 76.5,124.5 77.5,124.5C 77.4959,122.158 76.6625,120.158 75,118.5C 74.6667,109.833 74.3333,101.167 74,92.5C 73.6258,91.5838 73.1258,90.7504 72.5,90C 68.5811,88.1382 64.5811,86.4715 60.5,85C 58.771,83.2111 58.1043,81.0444 58.5,78.5C 62.6851,77.4573 64.1851,74.7906 63,70.5C 59.531,67.0837 55.8644,66.7504 52,69.5C 51.3333,71.8333 51.3333,74.1667 52,76.5C 54.8169,79.5259 56.9836,83.0259 58.5,87C 62.0901,88.5302 65.7568,89.8635 69.5,91C 70.3333,91.8333 71.1667,92.6667 72,93.5C 72.6667,101.833 72.6667,110.167 72,118.5C 70.3375,120.158 69.5041,122.158 69.5,124.5C 70.5,124.5 71.5,124.5 72.5,124.5C 72.5,126.833 72.5,129.167 72.5,131.5C 70.712,131.785 69.0453,131.452 67.5,130.5C 66.5169,125.725 64.8503,121.225 62.5,117C 56.6098,115.755 50.6098,115.088 44.5,115C 43.6667,114.167 42.8333,113.333 42,112.5C 40.6033,107.292 40.1033,101.959 40.5,96.5C 36.8333,95.8333 33.1667,95.1667 29.5,94.5C 30.8343,89.3316 32.6677,84.3316 35,79.5C 33.8138,58.6839 42.9805,44.8506 62.5,38C 79.3836,35.6078 91.7169,41.9412 99.5,57C 95.9023,60.2801 95.569,63.9467 98.5,68C 99.448,68.4828 100.448,68.6495 101.5,68.5C 101.665,72.1817 101.499,75.8484 101,79.5C 97.7384,80.687 94.7384,82.3536 92,84.5C 91.5017,87.8168 91.335,91.1501 91.5,94.5C 90.5,94.5 89.5,94.5 88.5,94.5C 88.2639,97.2257 89.0972,99.559 91,101.5C 91.4998,111.494 91.6665,121.494 91.5,131.5C 90.1667,131.5 88.8333,131.5 87.5,131.5C 87.3359,128.813 87.5026,126.146 88,123.5C 89.5588,121.783 90.3921,119.783 90.5,117.5C 89.5,117.5 88.5,117.5 87.5,117.5C 87.5,97.5 87.5,77.5 87.5,57.5C 91.7836,56.6153 93.2836,53.9486 92,49.5C 88.4123,45.6073 84.7456,45.6073 81,49.5C 79.6649,53.6081 80.8316,56.6081 84.5,58.5 Z"/></g>
<g><path style="opacity:1" fill="#f0f1fa" d="M 55.5,69.5 C 60.0139,69.6932 61.3473,71.8599 59.5,76C 53.6815,76.5262 52.3481,74.3595 55.5,69.5 Z"/></g>
<g><path style="opacity:1" fill="#f1f2fa" d="M 67.5,59.5 C 73.5548,58.9421 74.8881,61.1088 71.5,66C 66.7954,66.1057 65.4621,63.939 67.5,59.5 Z"/></g>
<g><path style="opacity:1" fill="#bbc0e8" d="M 84.5,58.5 C 85.8333,78.1667 85.8333,97.8333 84.5,117.5C 84.5,113.5 84.5,109.5 84.5,105.5C 83.5,105.5 82.5,105.5 81.5,105.5C 82.2625,104.732 83.2625,104.232 84.5,104C 83.944,103.617 83.6107,103.117 83.5,102.5C 84.496,88.0095 84.8293,73.3428 84.5,58.5 Z"/></g>
<g><path style="opacity:1" fill="#eeeff9" d="M 84.5,48.5 C 89.0139,48.6932 90.3473,50.8599 88.5,55C 82.6815,55.5262 81.3481,53.3595 84.5,48.5 Z"/></g>
<g><path style="opacity:1" fill="#6e6e6e" d="M 374.5,70.5 C 375.497,87.3251 375.83,104.325 375.5,121.5C 366.318,121.827 357.318,121.493 348.5,120.5C 357.167,120.5 365.833,120.5 374.5,120.5C 374.5,103.833 374.5,87.1667 374.5,70.5 Z"/></g>
<g><path style="opacity:1" fill="#d8daf1" d="M 94.5,100.5 C 94.1936,103.385 94.5269,106.052 95.5,108.5C 94.8902,109.391 94.5569,110.391 94.5,111.5C 94.5,117.833 94.5,124.167 94.5,130.5C 95.5,130.5 96.5,130.5 97.5,130.5C 96.4324,131.434 95.099,131.768 93.5,131.5C 93.1724,120.986 93.5058,110.653 94.5,100.5 Z"/></g>
<g><path style="opacity:1" fill="#2e2e2e" d="M 178.5,71.5 C 178.5,74.8333 178.5,78.1667 178.5,81.5C 175.167,81.5 171.833,81.5 168.5,81.5C 168.5,79.8333 168.5,78.1667 168.5,76.5C 163.652,75.1863 158.652,75.1863 153.5,76.5C 153.624,77.1067 153.957,77.44 154.5,77.5C 155.907,79.5321 157.24,81.6987 158.5,84C 165.282,88.448 171.782,93.2814 178,98.5C 178.667,104.5 178.667,110.5 178,116.5C 177.252,118.751 175.752,120.084 173.5,120.5C 166.159,120.666 158.826,120.5 151.5,120C 150.756,118.961 149.756,118.461 148.5,118.5C 146.682,113.729 146.015,108.729 146.5,103.5C 149.833,103.5 153.167,103.5 156.5,103.5C 156.5,105.5 156.5,107.5 156.5,109.5C 160.5,109.5 164.5,109.5 168.5,109.5C 168.662,107.473 168.495,105.473 168,103.5C 161.078,98.6222 154.245,93.6222 147.5,88.5C 146.336,82.1928 146.169,75.8595 147,69.5C 148.109,67.1853 149.943,65.6853 152.5,65C 159.167,64.3333 165.833,64.3333 172.5,65C 176.089,65.7542 178.089,67.9209 178.5,71.5 Z"/></g>
<g><path style="opacity:1" fill="#676767" d="M 168.5,76.5 C 163.637,76.1805 158.97,76.5139 154.5,77.5C 153.957,77.44 153.624,77.1067 153.5,76.5C 158.652,75.1863 163.652,75.1863 168.5,76.5 Z"/></g>
<g><path style="opacity:1" fill="#4b4b4b" d="M 327.5,76.5 C 328.496,90.9905 328.829,105.657 328.5,120.5C 331.5,120.5 334.5,120.5 337.5,120.5C 334.375,121.479 331.042,121.813 327.5,121.5C 327.5,106.5 327.5,91.5 327.5,76.5 Z"/></g>
<g><path style="opacity:1" fill="#acacac" d="M 364.5,94.5 C 365.487,99.3054 365.821,104.305 365.5,109.5C 361.167,109.5 356.833,109.5 352.5,109.5C 352.5,105.167 352.5,100.833 352.5,96.5C 353.483,100.298 353.817,104.298 353.5,108.5C 357.167,108.5 360.833,108.5 364.5,108.5C 364.5,103.833 364.5,99.1667 364.5,94.5 Z"/></g>
<g><path style="opacity:1" fill="#fdfdfe" d="M 94.5,111.5 C 95.5,111.5 96.5,111.5 97.5,111.5C 97.5,117.833 97.5,124.167 97.5,130.5C 96.5,130.5 95.5,130.5 94.5,130.5C 94.5,124.167 94.5,117.833 94.5,111.5 Z"/></g>
<g><path style="opacity:1" fill="#f1f2fa" d="M 81.5,105.5 C 82.5,105.5 83.5,105.5 84.5,105.5C 84.5,109.5 84.5,113.5 84.5,117.5C 83.5028,117.47 82.8361,117.97 82.5,119C 84.927,122.819 85.927,126.986 85.5,131.5C 84.1667,131.5 82.8333,131.5 81.5,131.5C 81.5,122.833 81.5,114.167 81.5,105.5 Z"/></g>
<g><path style="opacity:1" fill="#5a5a5a" d="M 148.5,118.5 C 149.756,118.461 150.756,118.961 151.5,120C 158.826,120.5 166.159,120.666 173.5,120.5C 166.011,121.656 158.345,121.822 150.5,121C 149.619,120.292 148.953,119.458 148.5,118.5 Z"/></g>
<g><path style="opacity:1" fill="#6e6e6e" d="M 425.5,108.5 C 425.5,112.5 425.5,116.5 425.5,120.5C 434.167,120.5 442.833,120.5 451.5,120.5C 451.5,117.167 451.5,113.833 451.5,110.5C 446.305,110.821 441.305,110.487 436.5,109.5C 441.833,109.5 447.167,109.5 452.5,109.5C 452.5,113.5 452.5,117.5 452.5,121.5C 443.167,121.5 433.833,121.5 424.5,121.5C 424.182,116.968 424.515,112.634 425.5,108.5 Z"/></g>
</svg>
